<svg xmlns="http://www.w3.org/2000/svg" width="1390" height="270" viewBox="0 0 1390 270">
<rect width="1390" height="270" fill="#f8f8f8"/>
<text x="30" y="36" font-family="Arial" font-size="28" fill="#222">Figure 3.1 Proposed Methodology Flowchart</text>
<rect x="30" y="100" rx="16" ry="16" width="250" height="88" fill="#dff1ff" stroke="#4a7ea8" stroke-width="2"/>
<text x="155.0" y="117" text-anchor="middle" font-family="Arial" font-size="18" fill="#17324d">Input</text>
<text x="155.0" y="141" text-anchor="middle" font-family="Arial" font-size="18" fill="#17324d">Underwater Image</text>
<line x1="280" y1="144" x2="320" y2="144" stroke="#555" stroke-width="3"/>
<polygon points="320,144 308,138 308,150" fill="#555"/>
<rect x="320" y="100" rx="16" ry="16" width="210" height="88" fill="#dff1ff" stroke="#4a7ea8" stroke-width="2"/>
<text x="425.0" y="128" text-anchor="middle" font-family="Arial" font-size="18" fill="#17324d">Preprocessing</text>
<line x1="530" y1="144" x2="570" y2="144" stroke="#555" stroke-width="3"/>
<polygon points="570,144 558,138 558,150" fill="#555"/>
<rect x="570" y="100" rx="16" ry="16" width="250" height="88" fill="#dff1ff" stroke="#4a7ea8" stroke-width="2"/>
<text x="695.0" y="117" text-anchor="middle" font-family="Arial" font-size="18" fill="#17324d">CNN-Based</text>
<text x="695.0" y="141" text-anchor="middle" font-family="Arial" font-size="18" fill="#17324d">Enhancement Model</text>
<line x1="820" y1="144" x2="860" y2="144" stroke="#555" stroke-width="3"/>
<polygon points="860,144 848,138 848,150" fill="#555"/>
<rect x="860" y="100" rx="16" ry="16" width="210" height="88" fill="#dff1ff" stroke="#4a7ea8" stroke-width="2"/>
<text x="965.0" y="117" text-anchor="middle" font-family="Arial" font-size="18" fill="#17324d">Enhanced</text>
<text x="965.0" y="141" text-anchor="middle" font-family="Arial" font-size="18" fill="#17324d">Output Image</text>
<line x1="1070" y1="144" x2="1110" y2="144" stroke="#555" stroke-width="3"/>
<polygon points="1110,144 1098,138 1098,150" fill="#555"/>
<rect x="1110" y="100" rx="16" ry="16" width="250" height="88" fill="#dff1ff" stroke="#4a7ea8" stroke-width="2"/>
<text x="1235.0" y="117" text-anchor="middle" font-family="Arial" font-size="18" fill="#17324d">Evaluation and</text>
<text x="1235.0" y="141" text-anchor="middle" font-family="Arial" font-size="18" fill="#17324d">Visual Analysis</text>
</svg>