<svg xmlns="http://www.w3.org/2000/svg" width="1514" height="300" viewBox="0 0 1514 300">
<rect width="1514" height="300" fill="#f8f8f8"/>
<text x="30" y="42" font-family="Arial" font-size="28" fill="#222">Figure 4.5 System Implementation Workflow</text>
<rect x="30" y="110" rx="16" ry="16" width="180" height="88" fill="#e9f3dc" stroke="#56764d" stroke-width="2"/>
<text x="120.0" y="142" text-anchor="middle" font-family="Arial" font-size="18" fill="#2e4a27">Dataset Collection</text>
<line x1="210" y1="154" x2="244" y2="154" stroke="#555" stroke-width="3"/>
<polygon points="244,154 232,148 232,160" fill="#555"/>
<rect x="244" y="110" rx="16" ry="16" width="170" height="88" fill="#e9f3dc" stroke="#56764d" stroke-width="2"/>
<text x="329.0" y="142" text-anchor="middle" font-family="Arial" font-size="18" fill="#2e4a27">Preprocessing</text>
<line x1="414" y1="154" x2="448" y2="154" stroke="#555" stroke-width="3"/>
<polygon points="448,154 436,148 436,160" fill="#555"/>
<rect x="448" y="110" rx="16" ry="16" width="170" height="88" fill="#e9f3dc" stroke="#56764d" stroke-width="2"/>
<text x="533.0" y="142" text-anchor="middle" font-family="Arial" font-size="18" fill="#2e4a27">Model Training</text>
<line x1="618" y1="154" x2="652" y2="154" stroke="#555" stroke-width="3"/>
<polygon points="652,154 640,148 640,160" fill="#555"/>
<rect x="652" y="110" rx="16" ry="16" width="150" height="88" fill="#e9f3dc" stroke="#56764d" stroke-width="2"/>
<text x="727.0" y="142" text-anchor="middle" font-family="Arial" font-size="18" fill="#2e4a27">Validation</text>
<line x1="802" y1="154" x2="836" y2="154" stroke="#555" stroke-width="3"/>
<polygon points="836,154 824,148 824,160" fill="#555"/>
<rect x="836" y="110" rx="16" ry="16" width="180" height="88" fill="#e9f3dc" stroke="#56764d" stroke-width="2"/>
<text x="926.0" y="142" text-anchor="middle" font-family="Arial" font-size="18" fill="#2e4a27">Image Enhancement</text>
<line x1="1016" y1="154" x2="1050" y2="154" stroke="#555" stroke-width="3"/>
<polygon points="1050,154 1038,148 1038,160" fill="#555"/>
<rect x="1050" y="110" rx="16" ry="16" width="220" height="88" fill="#e9f3dc" stroke="#56764d" stroke-width="2"/>
<text x="1160.0" y="142" text-anchor="middle" font-family="Arial" font-size="18" fill="#2e4a27">Performance Evaluation</text>
<line x1="1270" y1="154" x2="1304" y2="154" stroke="#555" stroke-width="3"/>
<polygon points="1304,154 1292,148 1292,160" fill="#555"/>
<rect x="1304" y="110" rx="16" ry="16" width="180" height="88" fill="#e9f3dc" stroke="#56764d" stroke-width="2"/>
<text x="1394.0" y="142" text-anchor="middle" font-family="Arial" font-size="18" fill="#2e4a27">Result Generation</text>
</svg>