<svg xmlns="http://www.w3.org/2000/svg" width="1570" height="300" viewBox="0 0 1570 300">
<rect width="1570" height="300" fill="#f8f8f8"/>
<text x="30" y="42" font-family="Arial" font-size="28" fill="#222">Figure 4.2 Training Setup Workflow</text>
<rect x="30" y="110" rx="16" ry="16" width="220" height="88" fill="#dff1ff" stroke="#4a7ea8" stroke-width="2"/>
<text x="140.0" y="132" text-anchor="middle" font-family="Arial" font-size="18" fill="#17324d">Paired</text>
<text x="140.0" y="156" text-anchor="middle" font-family="Arial" font-size="18" fill="#17324d">Underwater Dataset</text>
<line x1="250" y1="154" x2="290" y2="154" stroke="#555" stroke-width="3"/>
<polygon points="290,154 278,148 278,160" fill="#555"/>
<rect x="290" y="110" rx="16" ry="16" width="220" height="88" fill="#dff1ff" stroke="#4a7ea8" stroke-width="2"/>
<text x="400.0" y="132" text-anchor="middle" font-family="Arial" font-size="18" fill="#17324d">DataLoader</text>
<text x="400.0" y="156" text-anchor="middle" font-family="Arial" font-size="18" fill="#17324d">and Batching</text>
<line x1="510" y1="154" x2="550" y2="154" stroke="#555" stroke-width="3"/>
<polygon points="550,154 538,148 538,160" fill="#555"/>
<rect x="550" y="110" rx="16" ry="16" width="230" height="88" fill="#dff1ff" stroke="#4a7ea8" stroke-width="2"/>
<text x="665.0" y="132" text-anchor="middle" font-family="Arial" font-size="18" fill="#17324d">CNN +</text>
<text x="665.0" y="156" text-anchor="middle" font-family="Arial" font-size="18" fill="#17324d">MobileViT Model</text>
<line x1="780" y1="154" x2="820" y2="154" stroke="#555" stroke-width="3"/>
<polygon points="820,154 808,148 808,160" fill="#555"/>
<rect x="820" y="110" rx="16" ry="16" width="200" height="88" fill="#dff1ff" stroke="#4a7ea8" stroke-width="2"/>
<text x="920.0" y="132" text-anchor="middle" font-family="Arial" font-size="18" fill="#17324d">Loss</text>
<text x="920.0" y="156" text-anchor="middle" font-family="Arial" font-size="18" fill="#17324d">+ Optimizer</text>
<line x1="1020" y1="154" x2="1060" y2="154" stroke="#555" stroke-width="3"/>
<polygon points="1060,154 1048,148 1048,160" fill="#555"/>
<rect x="1060" y="110" rx="16" ry="16" width="200" height="88" fill="#dff1ff" stroke="#4a7ea8" stroke-width="2"/>
<text x="1160.0" y="142" text-anchor="middle" font-family="Arial" font-size="18" fill="#17324d">Epoch-wise Validation</text>
<line x1="1260" y1="154" x2="1300" y2="154" stroke="#555" stroke-width="3"/>
<polygon points="1300,154 1288,148 1288,160" fill="#555"/>
<rect x="1300" y="110" rx="16" ry="16" width="240" height="88" fill="#dff1ff" stroke="#4a7ea8" stroke-width="2"/>
<text x="1420.0" y="132" text-anchor="middle" font-family="Arial" font-size="18" fill="#17324d">Checkpoint and</text>
<text x="1420.0" y="156" text-anchor="middle" font-family="Arial" font-size="18" fill="#17324d">Output Saving</text>
</svg>