<svg xmlns="http://www.w3.org/2000/svg" width="1400" height="260" viewBox="0 0 1400 260">
<rect width="1400" height="260" fill="#f8f8f8"/>
<text x="30" y="35" font-family="Arial" font-size="28" fill="#222">Figure 4.2 Preprocessing Workflow</text>
<rect x="30" y="90" rx="14" ry="14" width="145" height="78" fill="#dff1ff" stroke="#4a7ea8" stroke-width="2"/>
<text x="102.5" y="120" text-anchor="middle" font-family="Arial" font-size="18" fill="#17324d">Dataset Collection</text>
<line x1="175" y1="129" x2="211" y2="129" stroke="#555" stroke-width="3"/>
<polygon points="211,129 199,123 199,135" fill="#555"/>
<rect x="211" y="90" rx="14" ry="14" width="145" height="78" fill="#dff1ff" stroke="#4a7ea8" stroke-width="2"/>
<text x="283.5" y="120" text-anchor="middle" font-family="Arial" font-size="18" fill="#17324d">File Filtering</text>
<line x1="356" y1="129" x2="392" y2="129" stroke="#555" stroke-width="3"/>
<polygon points="392,129 380,123 380,135" fill="#555"/>
<rect x="392" y="90" rx="14" ry="14" width="145" height="78" fill="#dff1ff" stroke="#4a7ea8" stroke-width="2"/>
<text x="464.5" y="120" text-anchor="middle" font-family="Arial" font-size="18" fill="#17324d">Filename Pairing</text>
<line x1="537" y1="129" x2="573" y2="129" stroke="#555" stroke-width="3"/>
<polygon points="573,129 561,123 561,135" fill="#555"/>
<rect x="573" y="90" rx="14" ry="14" width="145" height="78" fill="#dff1ff" stroke="#4a7ea8" stroke-width="2"/>
<text x="645.5" y="120" text-anchor="middle" font-family="Arial" font-size="18" fill="#17324d">RGB Conversion</text>
<line x1="718" y1="129" x2="754" y2="129" stroke="#555" stroke-width="3"/>
<polygon points="754,129 742,123 742,135" fill="#555"/>
<rect x="754" y="90" rx="14" ry="14" width="175" height="78" fill="#dff1ff" stroke="#4a7ea8" stroke-width="2"/>
<text x="841.5" y="120" text-anchor="middle" font-family="Arial" font-size="18" fill="#17324d">Resize to</text>
<text x="841.5" y="144" text-anchor="middle" font-family="Arial" font-size="18" fill="#17324d">256 x 256</text>
<line x1="929" y1="129" x2="965" y2="129" stroke="#555" stroke-width="3"/>
<polygon points="965,129 953,123 953,135" fill="#555"/>
<rect x="965" y="90" rx="14" ry="14" width="145" height="78" fill="#dff1ff" stroke="#4a7ea8" stroke-width="2"/>
<text x="1037.5" y="120" text-anchor="middle" font-family="Arial" font-size="18" fill="#17324d">Augmentation</text>
<line x1="1110" y1="129" x2="1146" y2="129" stroke="#555" stroke-width="3"/>
<polygon points="1146,129 1134,123 1134,135" fill="#555"/>
<rect x="1146" y="90" rx="14" ry="14" width="175" height="78" fill="#dff1ff" stroke="#4a7ea8" stroke-width="2"/>
<text x="1233.5" y="120" text-anchor="middle" font-family="Arial" font-size="18" fill="#17324d">Tensor Conversion</text>
<line x1="1321" y1="129" x2="1357" y2="129" stroke="#555" stroke-width="3"/>
<polygon points="1357,129 1345,123 1345,135" fill="#555"/>
<rect x="1357" y="90" rx="14" ry="14" width="145" height="78" fill="#dff1ff" stroke="#4a7ea8" stroke-width="2"/>
<text x="1429.5" y="120" text-anchor="middle" font-family="Arial" font-size="18" fill="#17324d">Model Input</text>
</svg>